{
	"asset":{
		"generator":"Khronos glTF Blender I/O v4.2.60",
		"version":"2.0"
	},
	"extensionsUsed":[
		"KHR_materials_transmission",
		"KHR_materials_specular"
	],
	"scene":0,
	"scenes":[
		{
			"name":"Scene",
			"nodes":[
				0
			]
		}
	],
	"nodes":[
		{
			"mesh":0,
			"name":"T-Rex Model",
			"rotation":[
				0.7071068286895752,
				0,
				0,
				0.7071068286895752
			],
			"scale":[
				0.3614867329597473,
				0.3614867329597473,
				0.3614867329597473
			],
			"translation":[
				-7.707030296325684,
				-81.7745361328125,
				-52.83592224121094
			]
		}
	],
	"materials":[
		{
			"doubleSided":true,
			"extensions":{
				"KHR_materials_transmission":{
					"transmissionFactor":1
				},
				"KHR_materials_specular":{
					"specularFactor":0.25780001282691956
				}
			},
			"name":"DINOMAT",
			"pbrMetallicRoughness":{
				"baseColorTexture":{
					"index":0
				},
				"metallicFactor":0,
				"roughnessFactor":0.7975154519081116
			}
		},
		{
			"doubleSided":true,
			"extensions":{
				"KHR_materials_transmission":{
					"transmissionFactor":1
				},
				"KHR_materials_specular":{
					"specularColorFactor":[
						2.0,
						2.0,
						2.0
					]
				}
			},
			"name":"DINOOJO",
			"pbrMetallicRoughness":{
				"baseColorTexture":{
					"index":1
				},
				"metallicFactor":0,
				"roughnessFactor":0.7243190407752991
			}
		},
		{
			"doubleSided":true,
			"extensions":{
				"KHR_materials_transmission":{
					"transmissionFactor":1
				},
				"KHR_materials_specular":{
					"specularFactor":0.4000000059604645
				}
			},
			"name":"DINODIENTE",
			"pbrMetallicRoughness":{
				"baseColorTexture":{
					"index":2
				},
				"metallicFactor":0,
				"roughnessFactor":0.7975154519081116
			}
		},
		{
			"doubleSided":true,
			"extensions":{
				"KHR_materials_transmission":{
					"transmissionFactor":1
				},
				"KHR_materials_specular":{
					"specularFactor":0.4076000154018402
				}
			},
			"name":"U_A",
			"pbrMetallicRoughness":{
				"baseColorTexture":{
					"index":3
				},
				"metallicFactor":0,
				"roughnessFactor":0.8356832265853882
			}
		}
	],
	"meshes":[
		{
			"name":"T-Rex Model",
			"primitives":[
				{
					"attributes":{
						"POSITION":0,
						"NORMAL":1,
						"TEXCOORD_0":2
					},
					"indices":3,
					"material":0
				},
				{
					"attributes":{
						"POSITION":4,
						"NORMAL":5,
						"TEXCOORD_0":6
					},
					"indices":7,
					"material":1
				},
				{
					"attributes":{
						"POSITION":8,
						"NORMAL":9,
						"TEXCOORD_0":10
					},
					"indices":11,
					"material":2
				},
				{
					"attributes":{
						"POSITION":12,
						"NORMAL":13,
						"TEXCOORD_0":14
					},
					"indices":15,
					"material":3
				}
			]
		}
	],
	"textures":[
		{
			"sampler":0,
			"source":0
		},
		{
			"sampler":0,
			"source":0
		},
		{
			"sampler":0,
			"source":0
		},
		{
			"sampler":0,
			"source":0
		}
	],
	"images":[
		{
			"mimeType":"image/jpeg",
			"name":"GRANDEB2",
			"uri":"GRANDEB2.jpg"
		}
	],
	"accessors":[
		{
			"bufferView":0,
			"componentType":5126,
			"count":5580,
			"max":[
				328.193603515625,
				214.3489990234375,
				-76.76480102539062
			],
			"min":[
				-218.30099487304688,
				75.63529968261719,
				-325.47430419921875
			],
			"type":"VEC3"
		},
		{
			"bufferView":1,
			"componentType":5126,
			"count":5580,
			"type":"VEC3"
		},
		{
			"bufferView":2,
			"componentType":5126,
			"count":5580,
			"type":"VEC2"
		},
		{
			"bufferView":3,
			"componentType":5123,
			"count":26313,
			"type":"SCALAR"
		},
		{
			"bufferView":4,
			"componentType":5126,
			"count":316,
			"max":[
				-163.15350341796875,
				156.85670471191406,
				-310.0994873046875
			],
			"min":[
				-168.77740478515625,
				131.4149932861328,
				-315.4186096191406
			],
			"type":"VEC3"
		},
		{
			"bufferView":5,
			"componentType":5126,
			"count":316,
			"type":"VEC3"
		},
		{
			"bufferView":6,
			"componentType":5126,
			"count":316,
			"type":"VEC2"
		},
		{
			"bufferView":7,
			"componentType":5123,
			"count":324,
			"type":"SCALAR"
		},
		{
			"bufferView":8,
			"componentType":5126,
			"count":14865,
			"max":[
				-167.03329467773438,
				159.13890075683594,
				-243.32069396972656
			],
			"min":[
				-216.4375,
				130.6053924560547,
				-292.26629638671875
			],
			"type":"VEC3"
		},
		{
			"bufferView":9,
			"componentType":5126,
			"count":14865,
			"type":"VEC3"
		},
		{
			"bufferView":10,
			"componentType":5126,
			"count":14865,
			"type":"VEC2"
		},
		{
			"bufferView":11,
			"componentType":5123,
			"count":15168,
			"type":"SCALAR"
		},
		{
			"bufferView":12,
			"componentType":5126,
			"count":637,
			"max":[
				23.564899444580078,
				221.51319885253906,
				-79.33589935302734
			],
			"min":[
				-115.05229949951172,
				68.04850006103516,
				-215.8647003173828
			],
			"type":"VEC3"
		},
		{
			"bufferView":13,
			"componentType":5126,
			"count":637,
			"type":"VEC3"
		},
		{
			"bufferView":14,
			"componentType":5126,
			"count":637,
			"type":"VEC2"
		},
		{
			"bufferView":15,
			"componentType":5123,
			"count":3702,
			"type":"SCALAR"
		}
	],
	"bufferViews":[
		{
			"buffer":0,
			"byteLength":66960,
			"byteOffset":0,
			"target":34962
		},
		{
			"buffer":0,
			"byteLength":66960,
			"byteOffset":66960,
			"target":34962
		},
		{
			"buffer":0,
			"byteLength":44640,
			"byteOffset":133920,
			"target":34962
		},
		{
			"buffer":0,
			"byteLength":52626,
			"byteOffset":178560,
			"target":34963
		},
		{
			"buffer":0,
			"byteLength":3792,
			"byteOffset":231188,
			"target":34962
		},
		{
			"buffer":0,
			"byteLength":3792,
			"byteOffset":234980,
			"target":34962
		},
		{
			"buffer":0,
			"byteLength":2528,
			"byteOffset":238772,
			"target":34962
		},
		{
			"buffer":0,
			"byteLength":648,
			"byteOffset":241300,
			"target":34963
		},
		{
			"buffer":0,
			"byteLength":178380,
			"byteOffset":241948,
			"target":34962
		},
		{
			"buffer":0,
			"byteLength":178380,
			"byteOffset":420328,
			"target":34962
		},
		{
			"buffer":0,
			"byteLength":118920,
			"byteOffset":598708,
			"target":34962
		},
		{
			"buffer":0,
			"byteLength":30336,
			"byteOffset":717628,
			"target":34963
		},
		{
			"buffer":0,
			"byteLength":7644,
			"byteOffset":747964,
			"target":34962
		},
		{
			"buffer":0,
			"byteLength":7644,
			"byteOffset":755608,
			"target":34962
		},
		{
			"buffer":0,
			"byteLength":5096,
			"byteOffset":763252,
			"target":34962
		},
		{
			"buffer":0,
			"byteLength":7404,
			"byteOffset":768348,
			"target":34963
		}
	],
	"samplers":[
		{
			"magFilter":9729,
			"minFilter":9987
		}
	],
	"buffers":[
		{
			"byteLength":775752,
			"uri":"T.bin"
		}
	]
}
